{
	"asset":{
		"generator":"Khronos glTF Blender I/O v5.1.18",
		"version":"2.0"
	},
	"scene":0,
	"scenes":[
		{
			"name":"Scene",
			"nodes":[
				0
			]
		}
	],
	"nodes":[
		{
			"mesh":0,
			"name":"cross_pein_hammer"
		}
	],
	"materials":[
		{
			"doubleSided":true,
			"name":"cross_pein_hammer",
			"normalTexture":{
				"index":0
			},
			"pbrMetallicRoughness":{
				"baseColorTexture":{
					"index":1
				},
				"metallicRoughnessTexture":{
					"index":2
				}
			}
		}
	],
	"meshes":[
		{
			"name":"RetopoFlow.001",
			"primitives":[
				{
					"attributes":{
						"POSITION":0,
						"NORMAL":1,
						"TEXCOORD_0":2
					},
					"indices":3,
					"material":0
				}
			]
		}
	],
	"textures":[
		{
			"sampler":0,
			"source":0
		},
		{
			"sampler":0,
			"source":1
		},
		{
			"sampler":0,
			"source":2
		}
	],
	"images":[
		{
			"mimeType":"image/png",
			"name":"cross_pein_hammer_nor_gl",
			"uri":"cross_pein_hammer_nor_gl.png"
		},
		{
			"mimeType":"image/jpeg",
			"name":"cross_pein_hammer_diff_4k",
			"uri":"cross_pein_hammer_diff_4k.jpg"
		},
		{
			"mimeType":"image/png",
			"name":"cross_pein_hammer_metal-cross_pein_hammer_rough",
			"uri":"cross_pein_hammer_metal-cross_pein_hammer_rough.png"
		}
	],
	"accessors":[
		{
			"bufferView":0,
			"componentType":5126,
			"count":1432,
			"max":[
				0.07912561297416687,
				0.16814759373664856,
				0.02774735912680626
			],
			"min":[
				-0.1347227841615677,
				-0.10497715324163437,
				-0.05024408549070358
			],
			"type":"VEC3"
		},
		{
			"bufferView":1,
			"componentType":5126,
			"count":1432,
			"type":"VEC3"
		},
		{
			"bufferView":2,
			"componentType":5126,
			"count":1432,
			"type":"VEC2"
		},
		{
			"bufferView":3,
			"componentType":5123,
			"count":6372,
			"type":"SCALAR"
		}
	],
	"bufferViews":[
		{
			"buffer":0,
			"byteLength":17184,
			"byteOffset":0,
			"target":34962
		},
		{
			"buffer":0,
			"byteLength":17184,
			"byteOffset":17184,
			"target":34962
		},
		{
			"buffer":0,
			"byteLength":11456,
			"byteOffset":34368,
			"target":34962
		},
		{
			"buffer":0,
			"byteLength":12744,
			"byteOffset":45824,
			"target":34963
		}
	],
	"samplers":[
		{
			"magFilter":9729,
			"minFilter":9987
		}
	],
	"buffers":[
		{
			"byteLength":58568,
			"uri":"hammer.bin"
		}
	]
}
