{
	"asset":{
		"generator":"Khronos glTF Blender I/O v4.5.49",
		"version":"2.0"
	},
	"extensionsUsed":[
		"KHR_materials_clearcoat",
		"KHR_materials_specular"
	],
	"scene":0,
	"scenes":[
		{
			"name":"Scene",
			"nodes":[
				7
			]
		}
	],
	"nodes":[
		{
			"name":"B\u00e9zierCurve",
			"scale":[
				0.6445710062980652,
				0.6445710062980652,
				0.6445710062980652
			],
			"translation":[
				0.14086176455020905,
				0.19620434939861298,
				-0.6400545239448547
			]
		},
		{
			"name":"B\u00e9zierCurve.001",
			"scale":[
				0.7019969820976257,
				0.7019969820976257,
				0.701996922492981
			],
			"translation":[
				0.1408616602420807,
				0.19620460271835327,
				0.18900495767593384
			]
		},
		{
			"mesh":0,
			"name":"Cube.019",
			"rotation":[
				0.38241782784461975,
				-0.010974608361721039,
				-0.9238507747650146,
				0.01165775302797556
			],
			"scale":[
				-0.31015798449516296,
				-0.31325042247772217,
				-0.25926992297172546
			],
			"translation":[
				2.6044721603393555,
				0.2088918685913086,
				-0.123438760638237
			]
		},
		{
			"mesh":1,
			"name":"Cube.032",
			"rotation":[
				0.9236903190612793,
				0.006643533241003752,
				-0.38308072090148926,
				0.0011154678650200367
			],
			"scale":[
				-0.3074633479118347,
				-0.31349310278892517,
				-0.259038507938385
			],
			"translation":[
				-2.3699228763580322,
				0.20533759891986847,
				-0.12056057155132294
			]
		},
		{
			"mesh":2,
			"name":"Text",
			"scale":[
				0.6445710062980652,
				0.64457106590271,
				0.6445709466934204
			],
			"translation":[
				0.14086176455020905,
				0.19620434939861298,
				-0.6400545239448547
			]
		},
		{
			"mesh":3,
			"name":"Text.001",
			"scale":[
				1.0977272987365723,
				1.0977272987365723,
				1.0977271795272827
			],
			"translation":[
				0.14086194336414337,
				0.19620437920093536,
				0.3030353784561157
			]
		},
		{
			"children":[
				0,
				1,
				2,
				3,
				4,
				5
			],
			"name":"Empty",
			"rotation":[
				0,
				-0.00028981344075873494,
				0,
				1
			],
			"translation":[
				3.061239242553711,
				0,
				-4.447246551513672
			]
		},
		{
			"children":[
				6
			],
			"name":"Empty.001",
			"rotation":[
				0.7005847692489624,
				-0.04114580526947975,
				-0.0230258721858263,
				0.7120097279548645
			],
			"translation":[
				-3.4892098903656006,
				-1.1406511068344116,
				-0.3507298529148102
			]
		}
	],
	"animations":[
		{
			"channels":[
				{
					"sampler":0,
					"target":{
						"node":6,
						"path":"translation"
					}
				},
				{
					"sampler":1,
					"target":{
						"node":6,
						"path":"rotation"
					}
				},
				{
					"sampler":2,
					"target":{
						"node":6,
						"path":"scale"
					}
				}
			],
			"name":"Action.002",
			"samplers":[
				{
					"input":16,
					"interpolation":"STEP",
					"output":17
				},
				{
					"input":18,
					"interpolation":"LINEAR",
					"output":19
				},
				{
					"input":16,
					"interpolation":"STEP",
					"output":20
				}
			]
		}
	],
	"materials":[
		{
			"doubleSided":true,
			"extensions":{
				"KHR_materials_clearcoat":{
					"clearcoatFactor":0.25
				},
				"KHR_materials_specular":{
					"specularColorFactor":[
						1.600000023841858,
						1.600000023841858,
						1.600000023841858
					]
				}
			},
			"name":"Material.012",
			"pbrMetallicRoughness":{
				"baseColorFactor":[
					0.3427025079727173,
					0.17437389492988586,
					0.0032886145636439323,
					1
				],
				"metallicFactor":0,
				"roughnessFactor":0.800000011920929
			}
		}
	],
	"meshes":[
		{
			"name":"Cube.036",
			"primitives":[
				{
					"attributes":{
						"POSITION":0,
						"NORMAL":1,
						"TEXCOORD_0":2
					},
					"indices":3,
					"material":0
				}
			]
		},
		{
			"name":"Cube.049",
			"primitives":[
				{
					"attributes":{
						"POSITION":4,
						"NORMAL":5,
						"TEXCOORD_0":6
					},
					"indices":7,
					"material":0
				}
			]
		},
		{
			"name":"Text",
			"primitives":[
				{
					"attributes":{
						"POSITION":8,
						"NORMAL":9,
						"TEXCOORD_0":10
					},
					"indices":11,
					"material":0
				}
			]
		},
		{
			"name":"Text.001",
			"primitives":[
				{
					"attributes":{
						"POSITION":12,
						"NORMAL":13,
						"TEXCOORD_0":14
					},
					"indices":15,
					"material":0
				}
			]
		}
	],
	"accessors":[
		{
			"bufferView":0,
			"componentType":5126,
			"count":2560,
			"max":[
				0.2422575205564499,
				0.395138144493103,
				0.8813110589981079
			],
			"min":[
				-1.2056201696395874,
				-0.19602376222610474,
				-0.8971590995788574
			],
			"type":"VEC3"
		},
		{
			"bufferView":1,
			"componentType":5126,
			"count":2560,
			"type":"VEC3"
		},
		{
			"bufferView":2,
			"componentType":5126,
			"count":2560,
			"type":"VEC2"
		},
		{
			"bufferView":3,
			"componentType":5123,
			"count":5088,
			"type":"SCALAR"
		},
		{
			"bufferView":4,
			"componentType":5126,
			"count":2572,
			"max":[
				0.2422575205564499,
				0.38395461440086365,
				0.8722285032272339
			],
			"min":[
				-1.2580081224441528,
				-0.19284282624721527,
				-0.8607221841812134
			],
			"type":"VEC3"
		},
		{
			"bufferView":5,
			"componentType":5126,
			"count":2572,
			"type":"VEC3"
		},
		{
			"bufferView":6,
			"componentType":5126,
			"count":2572,
			"type":"VEC2"
		},
		{
			"bufferView":7,
			"componentType":5123,
			"count":5088,
			"type":"SCALAR"
		},
		{
			"bufferView":8,
			"componentType":5126,
			"count":13112,
			"max":[
				3.9560043811798096,
				0.11999998986721039,
				0.0770486444234848
			],
			"min":[
				-3.972987651824951,
				-0.11999998986721039,
				-3.5279552936553955
			],
			"type":"VEC3"
		},
		{
			"bufferView":9,
			"componentType":5126,
			"count":13112,
			"type":"VEC3"
		},
		{
			"bufferView":10,
			"componentType":5126,
			"count":13112,
			"type":"VEC2"
		},
		{
			"bufferView":11,
			"componentType":5123,
			"count":65388,
			"type":"SCALAR"
		},
		{
			"bufferView":12,
			"componentType":5126,
			"count":8256,
			"max":[
				2.247403383255005,
				0.06000000238418579,
				1.815730094909668
			],
			"min":[
				-2.2399983406066895,
				-0.06000000238418579,
				-0.08624818921089172
			],
			"type":"VEC3"
		},
		{
			"bufferView":13,
			"componentType":5126,
			"count":8256,
			"type":"VEC3"
		},
		{
			"bufferView":14,
			"componentType":5126,
			"count":8256,
			"type":"VEC2"
		},
		{
			"bufferView":15,
			"componentType":5123,
			"count":40932,
			"type":"SCALAR"
		},
		{
			"bufferView":16,
			"componentType":5126,
			"count":2,
			"max":[
				7.5
			],
			"min":[
				0.041666666666666664
			],
			"type":"SCALAR"
		},
		{
			"bufferView":17,
			"componentType":5126,
			"count":2,
			"type":"VEC3"
		},
		{
			"bufferView":18,
			"componentType":5126,
			"count":180,
			"max":[
				7.5
			],
			"min":[
				0.041666666666666664
			],
			"type":"SCALAR"
		},
		{
			"bufferView":19,
			"componentType":5126,
			"count":180,
			"type":"VEC4"
		},
		{
			"bufferView":20,
			"componentType":5126,
			"count":2,
			"type":"VEC3"
		}
	],
	"bufferViews":[
		{
			"buffer":0,
			"byteLength":30720,
			"byteOffset":0,
			"target":34962
		},
		{
			"buffer":0,
			"byteLength":30720,
			"byteOffset":30720,
			"target":34962
		},
		{
			"buffer":0,
			"byteLength":20480,
			"byteOffset":61440,
			"target":34962
		},
		{
			"buffer":0,
			"byteLength":10176,
			"byteOffset":81920,
			"target":34963
		},
		{
			"buffer":0,
			"byteLength":30864,
			"byteOffset":92096,
			"target":34962
		},
		{
			"buffer":0,
			"byteLength":30864,
			"byteOffset":122960,
			"target":34962
		},
		{
			"buffer":0,
			"byteLength":20576,
			"byteOffset":153824,
			"target":34962
		},
		{
			"buffer":0,
			"byteLength":10176,
			"byteOffset":174400,
			"target":34963
		},
		{
			"buffer":0,
			"byteLength":157344,
			"byteOffset":184576,
			"target":34962
		},
		{
			"buffer":0,
			"byteLength":157344,
			"byteOffset":341920,
			"target":34962
		},
		{
			"buffer":0,
			"byteLength":104896,
			"byteOffset":499264,
			"target":34962
		},
		{
			"buffer":0,
			"byteLength":130776,
			"byteOffset":604160,
			"target":34963
		},
		{
			"buffer":0,
			"byteLength":99072,
			"byteOffset":734936,
			"target":34962
		},
		{
			"buffer":0,
			"byteLength":99072,
			"byteOffset":834008,
			"target":34962
		},
		{
			"buffer":0,
			"byteLength":66048,
			"byteOffset":933080,
			"target":34962
		},
		{
			"buffer":0,
			"byteLength":81864,
			"byteOffset":999128,
			"target":34963
		},
		{
			"buffer":0,
			"byteLength":8,
			"byteOffset":1080992
		},
		{
			"buffer":0,
			"byteLength":24,
			"byteOffset":1081000
		},
		{
			"buffer":0,
			"byteLength":720,
			"byteOffset":1081024
		},
		{
			"buffer":0,
			"byteLength":2880,
			"byteOffset":1081744
		},
		{
			"buffer":0,
			"byteLength":24,
			"byteOffset":1084624
		}
	],
	"buffers":[
		{
			"byteLength":1084648,
			"uri":"Circle.bin"
		}
	]
}
