{
	"asset":{
		"generator":"Khronos glTF Blender I/O v4.5.49",
		"version":"2.0"
	},
	"extensionsUsed":[
		"KHR_materials_clearcoat",
		"KHR_materials_specular"
	],
	"scene":0,
	"scenes":[
		{
			"name":"Scene",
			"nodes":[
				9
			]
		}
	],
	"nodes":[
		{
			"mesh":0,
			"name":"Cube.001",
			"translation":[
				-1.4295645952224731,
				0.003276348114013672,
				-7.35299825668335
			]
		},
		{
			"mesh":1,
			"name":"Cube.007",
			"translation":[
				-1.4273263216018677,
				0,
				-7.3426079750061035
			]
		},
		{
			"name":"B\u00e9zierCurve",
			"scale":[
				0.64457106590271,
				0.6445710062980652,
				0.6445710062980652
			],
			"translation":[
				0.14086192846298218,
				0.19620442390441895,
				-0.6400552988052368
			]
		},
		{
			"name":"B\u00e9zierCurve.001",
			"scale":[
				0.7019970417022705,
				0.7019969820976257,
				0.7019968628883362
			],
			"translation":[
				0.14086179435253143,
				0.19620469212532043,
				0.18900440633296967
			]
		},
		{
			"mesh":2,
			"name":"Cube.019",
			"rotation":[
				0.38241782784461975,
				-0.010974617674946785,
				-0.9238507747650146,
				0.011657758615911007
			],
			"scale":[
				-0.31015798449516296,
				-0.31325042247772217,
				-0.25926992297172546
			],
			"translation":[
				2.6044726371765137,
				0.2088918685913086,
				-0.12343928217887878
			]
		},
		{
			"mesh":3,
			"name":"Cube.032",
			"rotation":[
				0.9236903190612793,
				0.0066435313783586025,
				-0.38308075070381165,
				0.0011154509847983718
			],
			"scale":[
				-0.3074633479118347,
				-0.31349316239356995,
				-0.2590385377407074
			],
			"translation":[
				-2.3699228763580322,
				0.20533761382102966,
				-0.12056080251932144
			]
		},
		{
			"mesh":4,
			"name":"Text",
			"scale":[
				0.64457106590271,
				0.64457106590271,
				0.6445709466934204
			],
			"translation":[
				0.14086192846298218,
				0.19620442390441895,
				-0.6400552988052368
			]
		},
		{
			"mesh":5,
			"name":"Text.001",
			"scale":[
				1.0977271795272827,
				1.0977272987365723,
				1.0977272987365723
			],
			"translation":[
				0.14086206257343292,
				0.19620457291603088,
				0.30303481221199036
			]
		},
		{
			"children":[
				2,
				3,
				4,
				5,
				6,
				7
			],
			"name":"Empty",
			"rotation":[
				0,
				-0.00028981646755710244,
				0,
				1
			],
			"translation":[
				3.06123948097229,
				0,
				-4.44724702835083
			]
		},
		{
			"children":[
				0,
				1,
				8
			],
			"name":"Empty.001",
			"rotation":[
				-0.8037635684013367,
				-0.15061187744140625,
				-0.03557354956865311,
				0.5744690895080566
			],
			"translation":[
				-0.011741876602172852,
				1.1104263067245483,
				-1.8776676654815674
			]
		}
	],
	"animations":[
		{
			"channels":[
				{
					"sampler":0,
					"target":{
						"node":8,
						"path":"translation"
					}
				},
				{
					"sampler":1,
					"target":{
						"node":8,
						"path":"rotation"
					}
				},
				{
					"sampler":2,
					"target":{
						"node":8,
						"path":"scale"
					}
				}
			],
			"name":"Action.002",
			"samplers":[
				{
					"input":96,
					"interpolation":"STEP",
					"output":97
				},
				{
					"input":98,
					"interpolation":"LINEAR",
					"output":99
				},
				{
					"input":96,
					"interpolation":"STEP",
					"output":100
				}
			]
		}
	],
	"materials":[
		{
			"doubleSided":true,
			"extensions":{
				"KHR_materials_specular":{
					"specularColorFactor":[
						1.600000023841858,
						1.600000023841858,
						1.600000023841858
					]
				}
			},
			"name":"Material.011",
			"pbrMetallicRoughness":{
				"baseColorFactor":[
					0.7944517135620117,
					0.8025671243667603,
					0.5237947702407837,
					1
				],
				"metallicFactor":0,
				"roughnessFactor":0.800000011920929
			}
		},
		{
			"doubleSided":true,
			"extensions":{
				"KHR_materials_clearcoat":{
					"clearcoatFactor":0.25
				},
				"KHR_materials_specular":{
					"specularColorFactor":[
						1.600000023841858,
						1.600000023841858,
						1.600000023841858
					]
				}
			},
			"name":"Material.005",
			"pbrMetallicRoughness":{
				"baseColorFactor":[
					0.0938606932759285,
					0.10017985105514526,
					0.02928636595606804,
					1
				],
				"metallicFactor":0,
				"roughnessFactor":0.800000011920929
			}
		},
		{
			"doubleSided":true,
			"extensions":{
				"KHR_materials_clearcoat":{
					"clearcoatFactor":0.25
				},
				"KHR_materials_specular":{
					"specularColorFactor":[
						1.600000023841858,
						1.600000023841858,
						1.600000023841858
					]
				}
			},
			"name":"Material.010",
			"pbrMetallicRoughness":{
				"baseColorFactor":[
					0.5028831958770752,
					0.41788557171821594,
					0.1589609682559967,
					1
				],
				"metallicFactor":0,
				"roughnessFactor":0.800000011920929
			}
		},
		{
			"doubleSided":true,
			"extensions":{
				"KHR_materials_clearcoat":{
					"clearcoatFactor":0.25
				},
				"KHR_materials_specular":{
					"specularColorFactor":[
						1.600000023841858,
						1.600000023841858,
						1.600000023841858
					]
				}
			},
			"name":"Azulejo.02",
			"pbrMetallicRoughness":{
				"baseColorTexture":{
					"index":0
				},
				"metallicFactor":0,
				"roughnessFactor":0.800000011920929
			}
		},
		{
			"doubleSided":true,
			"extensions":{
				"KHR_materials_clearcoat":{
					"clearcoatFactor":0.25
				},
				"KHR_materials_specular":{
					"specularColorFactor":[
						1.600000023841858,
						1.600000023841858,
						1.600000023841858
					]
				}
			},
			"name":"Material.012",
			"pbrMetallicRoughness":{
				"baseColorFactor":[
					0.250156968832016,
					0.030713479965925217,
					0.005605405196547508,
					1
				],
				"metallicFactor":0,
				"roughnessFactor":0.800000011920929
			}
		},
		{
			"doubleSided":true,
			"extensions":{
				"KHR_materials_clearcoat":{
					"clearcoatFactor":0.25
				},
				"KHR_materials_specular":{
					"specularColorFactor":[
						1.600000023841858,
						1.600000023841858,
						1.600000023841858
					]
				}
			},
			"name":"Azulejo_01",
			"pbrMetallicRoughness":{
				"baseColorTexture":{
					"index":1
				},
				"metallicFactor":0,
				"roughnessFactor":0.800000011920929
			}
		}
	],
	"meshes":[
		{
			"name":"Cube.002",
			"primitives":[
				{
					"attributes":{
						"POSITION":0,
						"NORMAL":1,
						"TEXCOORD_0":2
					},
					"indices":3,
					"material":0
				},
				{
					"attributes":{
						"POSITION":4,
						"NORMAL":5,
						"TEXCOORD_0":6
					},
					"indices":7,
					"material":1
				},
				{
					"attributes":{
						"POSITION":8,
						"NORMAL":9,
						"TEXCOORD_0":10
					},
					"indices":11,
					"material":2
				},
				{
					"attributes":{
						"POSITION":12,
						"NORMAL":13,
						"TEXCOORD_0":14
					},
					"indices":15,
					"material":3
				},
				{
					"attributes":{
						"POSITION":16,
						"NORMAL":17,
						"TEXCOORD_0":18
					},
					"indices":19,
					"material":4
				},
				{
					"attributes":{
						"POSITION":20,
						"NORMAL":21,
						"TEXCOORD_0":22
					},
					"indices":23
				},
				{
					"attributes":{
						"POSITION":24,
						"NORMAL":25,
						"TEXCOORD_0":26
					},
					"indices":27,
					"material":1
				},
				{
					"attributes":{
						"POSITION":28,
						"NORMAL":29,
						"TEXCOORD_0":30
					},
					"indices":31,
					"material":5
				},
				{
					"attributes":{
						"POSITION":32,
						"NORMAL":33,
						"TEXCOORD_0":34
					},
					"indices":35,
					"material":4
				},
				{
					"attributes":{
						"POSITION":36,
						"NORMAL":37,
						"TEXCOORD_0":38
					},
					"indices":39,
					"material":0
				}
			]
		},
		{
			"name":"Cube.011",
			"primitives":[
				{
					"attributes":{
						"POSITION":40,
						"NORMAL":41,
						"TEXCOORD_0":42
					},
					"indices":43,
					"material":0
				},
				{
					"attributes":{
						"POSITION":44,
						"NORMAL":45,
						"TEXCOORD_0":46
					},
					"indices":47,
					"material":1
				},
				{
					"attributes":{
						"POSITION":48,
						"NORMAL":49,
						"TEXCOORD_0":50
					},
					"indices":51,
					"material":2
				},
				{
					"attributes":{
						"POSITION":52,
						"NORMAL":53,
						"TEXCOORD_0":54
					},
					"indices":55,
					"material":3
				},
				{
					"attributes":{
						"POSITION":56,
						"NORMAL":57,
						"TEXCOORD_0":58
					},
					"indices":59,
					"material":4
				},
				{
					"attributes":{
						"POSITION":60,
						"NORMAL":61,
						"TEXCOORD_0":62
					},
					"indices":63
				},
				{
					"attributes":{
						"POSITION":64,
						"NORMAL":65,
						"TEXCOORD_0":66
					},
					"indices":67,
					"material":1
				},
				{
					"attributes":{
						"POSITION":68,
						"NORMAL":69,
						"TEXCOORD_0":70
					},
					"indices":71,
					"material":5
				},
				{
					"attributes":{
						"POSITION":72,
						"NORMAL":73,
						"TEXCOORD_0":74
					},
					"indices":75,
					"material":4
				},
				{
					"attributes":{
						"POSITION":76,
						"NORMAL":77,
						"TEXCOORD_0":78
					},
					"indices":79,
					"material":0
				}
			]
		},
		{
			"name":"Cube.036",
			"primitives":[
				{
					"attributes":{
						"POSITION":80,
						"NORMAL":81,
						"TEXCOORD_0":82
					},
					"indices":83,
					"material":4
				}
			]
		},
		{
			"name":"Cube.049",
			"primitives":[
				{
					"attributes":{
						"POSITION":84,
						"NORMAL":85,
						"TEXCOORD_0":86
					},
					"indices":87,
					"material":4
				}
			]
		},
		{
			"name":"Text",
			"primitives":[
				{
					"attributes":{
						"POSITION":88,
						"NORMAL":89,
						"TEXCOORD_0":90
					},
					"indices":91,
					"material":4
				}
			]
		},
		{
			"name":"Text.001",
			"primitives":[
				{
					"attributes":{
						"POSITION":92,
						"NORMAL":93,
						"TEXCOORD_0":94
					},
					"indices":95,
					"material":4
				}
			]
		}
	],
	"textures":[
		{
			"sampler":0,
			"source":0
		},
		{
			"sampler":0,
			"source":0
		}
	],
	"images":[
		{
			"mimeType":"image/png",
			"name":"poeta_texture",
			"uri":"poeta_texture.png"
		}
	],
	"accessors":[
		{
			"bufferView":0,
			"componentType":5126,
			"count":36860,
			"max":[
				5.183668613433838,
				1.450312852859497,
				5.796663284301758
			],
			"min":[
				-0.8543717861175537,
				-1.6592292785644531,
				-0.8086590766906738
			],
			"type":"VEC3"
		},
		{
			"bufferView":1,
			"componentType":5126,
			"count":36860,
			"type":"VEC3"
		},
		{
			"bufferView":2,
			"componentType":5126,
			"count":36860,
			"type":"VEC2"
		},
		{
			"bufferView":3,
			"componentType":5123,
			"count":107289,
			"type":"SCALAR"
		},
		{
			"bufferView":4,
			"componentType":5126,
			"count":135341,
			"max":[
				5.234231948852539,
				1.4045963287353516,
				5.863978385925293
			],
			"min":[
				-0.6560661792755127,
				-1.654087781906128,
				-0.6351022124290466
			],
			"type":"VEC3"
		},
		{
			"bufferView":5,
			"componentType":5126,
			"count":135341,
			"type":"VEC3"
		},
		{
			"bufferView":6,
			"componentType":5126,
			"count":135341,
			"type":"VEC2"
		},
		{
			"bufferView":7,
			"componentType":5125,
			"count":319737,
			"type":"SCALAR"
		},
		{
			"bufferView":8,
			"componentType":5126,
			"count":23124,
			"max":[
				4.288987636566162,
				1.3788161277770996,
				5.443397045135498
			],
			"min":[
				0.1532752513885498,
				-1.362492322921753,
				-0.4719286859035492
			],
			"type":"VEC3"
		},
		{
			"bufferView":9,
			"componentType":5126,
			"count":23124,
			"type":"VEC3"
		},
		{
			"bufferView":10,
			"componentType":5126,
			"count":23124,
			"type":"VEC2"
		},
		{
			"bufferView":11,
			"componentType":5123,
			"count":50889,
			"type":"SCALAR"
		},
		{
			"bufferView":12,
			"componentType":5126,
			"count":10503,
			"max":[
				5.132591247558594,
				1.4002093076705933,
				5.863978385925293
			],
			"min":[
				-0.7815330028533936,
				-1.654087781906128,
				-0.7850773334503174
			],
			"type":"VEC3"
		},
		{
			"bufferView":13,
			"componentType":5126,
			"count":10503,
			"type":"VEC3"
		},
		{
			"bufferView":14,
			"componentType":5126,
			"count":10503,
			"type":"VEC2"
		},
		{
			"bufferView":15,
			"componentType":5123,
			"count":24111,
			"type":"SCALAR"
		},
		{
			"bufferView":16,
			"componentType":5126,
			"count":82588,
			"max":[
				4.995508670806885,
				1.5244041681289673,
				5.7203240394592285
			],
			"min":[
				-0.7815330028533936,
				-1.5773584842681885,
				-0.8454325199127197
			],
			"type":"VEC3"
		},
		{
			"bufferView":17,
			"componentType":5126,
			"count":82588,
			"type":"VEC3"
		},
		{
			"bufferView":18,
			"componentType":5126,
			"count":82588,
			"type":"VEC2"
		},
		{
			"bufferView":19,
			"componentType":5125,
			"count":196479,
			"type":"SCALAR"
		},
		{
			"bufferView":20,
			"componentType":5126,
			"count":167955,
			"max":[
				5.234231948852539,
				1.3099926710128784,
				5.753079414367676
			],
			"min":[
				-0.6949460506439209,
				-1.5773584842681885,
				-0.691986083984375
			],
			"type":"VEC3"
		},
		{
			"bufferView":21,
			"componentType":5126,
			"count":167955,
			"type":"VEC3"
		},
		{
			"bufferView":22,
			"componentType":5126,
			"count":167955,
			"type":"VEC2"
		},
		{
			"bufferView":23,
			"componentType":5125,
			"count":418248,
			"type":"SCALAR"
		},
		{
			"bufferView":24,
			"componentType":5126,
			"count":21668,
			"max":[
				4.628348350524902,
				1.4002093076705933,
				4.458279132843018
			],
			"min":[
				-0.7533414363861084,
				-1.2169044017791748,
				-0.7850773334503174
			],
			"type":"VEC3"
		},
		{
			"bufferView":25,
			"componentType":5126,
			"count":21668,
			"type":"VEC3"
		},
		{
			"bufferView":26,
			"componentType":5126,
			"count":21668,
			"type":"VEC2"
		},
		{
			"bufferView":27,
			"componentType":5123,
			"count":32370,
			"type":"SCALAR"
		},
		{
			"bufferView":28,
			"componentType":5126,
			"count":9188,
			"max":[
				4.83009147644043,
				1.233687400817871,
				5.3930344581604
			],
			"min":[
				-0.6526291370391846,
				-1.5076205730438232,
				-0.594873309135437
			],
			"type":"VEC3"
		},
		{
			"bufferView":29,
			"componentType":5126,
			"count":9188,
			"type":"VEC3"
		},
		{
			"bufferView":30,
			"componentType":5126,
			"count":9188,
			"type":"VEC2"
		},
		{
			"bufferView":31,
			"componentType":5123,
			"count":18216,
			"type":"SCALAR"
		},
		{
			"bufferView":32,
			"componentType":5126,
			"count":12479,
			"max":[
				4.880285263061523,
				1.3099926710128784,
				3.8198492527008057
			],
			"min":[
				-0.371046781539917,
				-0.07523596286773682,
				-0.6185860633850098
			],
			"type":"VEC3"
		},
		{
			"bufferView":33,
			"componentType":5126,
			"count":12479,
			"type":"VEC3"
		},
		{
			"bufferView":34,
			"componentType":5126,
			"count":12479,
			"type":"VEC2"
		},
		{
			"bufferView":35,
			"componentType":5123,
			"count":26805,
			"type":"SCALAR"
		},
		{
			"bufferView":36,
			"componentType":5126,
			"count":13484,
			"max":[
				4.930848121643066,
				1.1989696025848389,
				5.801331520080566
			],
			"min":[
				-0.8543717861175537,
				-1.5255053043365479,
				-0.6702109575271606
			],
			"type":"VEC3"
		},
		{
			"bufferView":37,
			"componentType":5126,
			"count":13484,
			"type":"VEC3"
		},
		{
			"bufferView":38,
			"componentType":5126,
			"count":13484,
			"type":"VEC2"
		},
		{
			"bufferView":39,
			"componentType":5123,
			"count":48711,
			"type":"SCALAR"
		},
		{
			"bufferView":40,
			"componentType":5126,
			"count":31368,
			"max":[
				5.173768043518066,
				1.5801030397415161,
				5.823177337646484
			],
			"min":[
				-0.8176085352897644,
				-1.5622519254684448,
				-0.8472236394882202
			],
			"type":"VEC3"
		},
		{
			"bufferView":41,
			"componentType":5126,
			"count":31368,
			"type":"VEC3"
		},
		{
			"bufferView":42,
			"componentType":5126,
			"count":31368,
			"type":"VEC2"
		},
		{
			"bufferView":43,
			"componentType":5123,
			"count":107289,
			"type":"SCALAR"
		},
		{
			"bufferView":44,
			"componentType":5126,
			"count":122688,
			"max":[
				5.2416090965271,
				1.5021421909332275,
				5.857172012329102
			],
			"min":[
				-0.6638010740280151,
				-1.63463294506073,
				-0.609696090221405
			],
			"type":"VEC3"
		},
		{
			"bufferView":45,
			"componentType":5126,
			"count":122688,
			"type":"VEC3"
		},
		{
			"bufferView":46,
			"componentType":5126,
			"count":122688,
			"type":"VEC2"
		},
		{
			"bufferView":47,
			"componentType":5125,
			"count":319737,
			"type":"SCALAR"
		},
		{
			"bufferView":48,
			"componentType":5126,
			"count":21322,
			"max":[
				5.035714149475098,
				1.197224736213684,
				5.730747222900391
			],
			"min":[
				-0.7662766575813293,
				-1.3834028244018555,
				-0.6539371013641357
			],
			"type":"VEC3"
		},
		{
			"bufferView":49,
			"componentType":5126,
			"count":21322,
			"type":"VEC3"
		},
		{
			"bufferView":50,
			"componentType":5126,
			"count":21322,
			"type":"VEC2"
		},
		{
			"bufferView":51,
			"componentType":5123,
			"count":50889,
			"type":"SCALAR"
		},
		{
			"bufferView":52,
			"componentType":5126,
			"count":9215,
			"max":[
				5.2416090965271,
				1.5817174911499023,
				5.795507431030273
			],
			"min":[
				-0.717468798160553,
				-1.5107073783874512,
				-0.7834847569465637
			],
			"type":"VEC3"
		},
		{
			"bufferView":53,
			"componentType":5126,
			"count":9215,
			"type":"VEC3"
		},
		{
			"bufferView":54,
			"componentType":5126,
			"count":9215,
			"type":"VEC2"
		},
		{
			"bufferView":55,
			"componentType":5123,
			"count":24111,
			"type":"SCALAR"
		},
		{
			"bufferView":56,
			"componentType":5126,
			"count":76419,
			"max":[
				5.138189315795898,
				1.5824377536773682,
				5.665782928466797
			],
			"min":[
				-0.8690760135650635,
				-1.51350998878479,
				-0.777044415473938
			],
			"type":"VEC3"
		},
		{
			"bufferView":57,
			"componentType":5126,
			"count":76419,
			"type":"VEC3"
		},
		{
			"bufferView":58,
			"componentType":5126,
			"count":76419,
			"type":"VEC2"
		},
		{
			"bufferView":59,
			"componentType":5125,
			"count":196479,
			"type":"SCALAR"
		},
		{
			"bufferView":60,
			"componentType":5126,
			"count":155071,
			"max":[
				4.989551067352295,
				1.423205018043518,
				5.857172012329102
			],
			"min":[
				-0.717468798160553,
				-1.63463294506073,
				-0.7329233884811401
			],
			"type":"VEC3"
		},
		{
			"bufferView":61,
			"componentType":5126,
			"count":155071,
			"type":"VEC3"
		},
		{
			"bufferView":62,
			"componentType":5126,
			"count":155071,
			"type":"VEC2"
		},
		{
			"bufferView":63,
			"componentType":5125,
			"count":418248,
			"type":"SCALAR"
		},
		{
			"bufferView":64,
			"componentType":5126,
			"count":21356,
			"max":[
				4.9329142570495605,
				1.431479811668396,
				3.8735110759735107
			],
			"min":[
				-0.4021145701408386,
				-0.7433333992958069,
				-0.5384113192558289
			],
			"type":"VEC3"
		},
		{
			"bufferView":65,
			"componentType":5126,
			"count":21356,
			"type":"VEC3"
		},
		{
			"bufferView":66,
			"componentType":5126,
			"count":21356,
			"type":"VEC2"
		},
		{
			"bufferView":67,
			"componentType":5123,
			"count":32370,
			"type":"SCALAR"
		},
		{
			"bufferView":68,
			"componentType":5126,
			"count":8440,
			"max":[
				5.138189315795898,
				1.2833247184753418,
				5.795507431030273
			],
			"min":[
				-0.6638010740280151,
				-1.5107073783874512,
				-0.5242136716842651
			],
			"type":"VEC3"
		},
		{
			"bufferView":69,
			"componentType":5126,
			"count":8440,
			"type":"VEC3"
		},
		{
			"bufferView":70,
			"componentType":5126,
			"count":8440,
			"type":"VEC2"
		},
		{
			"bufferView":71,
			"componentType":5123,
			"count":18216,
			"type":"SCALAR"
		},
		{
			"bufferView":72,
			"componentType":5126,
			"count":11180,
			"max":[
				3.5264225006103516,
				1.4518908262252808,
				4.421268463134766
			],
			"min":[
				-0.717468798160553,
				-1.1143803596496582,
				-0.7834847569465637
			],
			"type":"VEC3"
		},
		{
			"bufferView":73,
			"componentType":5126,
			"count":11180,
			"type":"VEC3"
		},
		{
			"bufferView":74,
			"componentType":5126,
			"count":11180,
			"type":"VEC2"
		},
		{
			"bufferView":75,
			"componentType":5123,
			"count":26805,
			"type":"SCALAR"
		},
		{
			"bufferView":76,
			"componentType":5126,
			"count":11285,
			"max":[
				4.758347988128662,
				1.5801030397415161,
				5.342292785644531
			],
			"min":[
				-0.20291560888290405,
				-1.1883329153060913,
				-0.8472236394882202
			],
			"type":"VEC3"
		},
		{
			"bufferView":77,
			"componentType":5126,
			"count":11285,
			"type":"VEC3"
		},
		{
			"bufferView":78,
			"componentType":5126,
			"count":11285,
			"type":"VEC2"
		},
		{
			"bufferView":79,
			"componentType":5123,
			"count":48711,
			"type":"SCALAR"
		},
		{
			"bufferView":80,
			"componentType":5126,
			"count":2560,
			"max":[
				0.2422575205564499,
				0.395138144493103,
				0.8813110589981079
			],
			"min":[
				-1.2056201696395874,
				-0.19602376222610474,
				-0.8971590995788574
			],
			"type":"VEC3"
		},
		{
			"bufferView":81,
			"componentType":5126,
			"count":2560,
			"type":"VEC3"
		},
		{
			"bufferView":82,
			"componentType":5126,
			"count":2560,
			"type":"VEC2"
		},
		{
			"bufferView":83,
			"componentType":5123,
			"count":5088,
			"type":"SCALAR"
		},
		{
			"bufferView":84,
			"componentType":5126,
			"count":2572,
			"max":[
				0.2422575205564499,
				0.38395461440086365,
				0.8722285032272339
			],
			"min":[
				-1.2580081224441528,
				-0.19284282624721527,
				-0.8607221841812134
			],
			"type":"VEC3"
		},
		{
			"bufferView":85,
			"componentType":5126,
			"count":2572,
			"type":"VEC3"
		},
		{
			"bufferView":86,
			"componentType":5126,
			"count":2572,
			"type":"VEC2"
		},
		{
			"bufferView":87,
			"componentType":5123,
			"count":5088,
			"type":"SCALAR"
		},
		{
			"bufferView":88,
			"componentType":5126,
			"count":13112,
			"max":[
				3.9560043811798096,
				0.11999998986721039,
				0.0770486444234848
			],
			"min":[
				-3.972987651824951,
				-0.11999998986721039,
				-3.5279552936553955
			],
			"type":"VEC3"
		},
		{
			"bufferView":89,
			"componentType":5126,
			"count":13112,
			"type":"VEC3"
		},
		{
			"bufferView":90,
			"componentType":5126,
			"count":13112,
			"type":"VEC2"
		},
		{
			"bufferView":91,
			"componentType":5123,
			"count":65388,
			"type":"SCALAR"
		},
		{
			"bufferView":92,
			"componentType":5126,
			"count":8256,
			"max":[
				2.247403383255005,
				0.06000000238418579,
				1.815730094909668
			],
			"min":[
				-2.2399983406066895,
				-0.06000000238418579,
				-0.08624818921089172
			],
			"type":"VEC3"
		},
		{
			"bufferView":93,
			"componentType":5126,
			"count":8256,
			"type":"VEC3"
		},
		{
			"bufferView":94,
			"componentType":5126,
			"count":8256,
			"type":"VEC2"
		},
		{
			"bufferView":95,
			"componentType":5123,
			"count":40932,
			"type":"SCALAR"
		},
		{
			"bufferView":96,
			"componentType":5126,
			"count":2,
			"max":[
				7.5
			],
			"min":[
				0.041666666666666664
			],
			"type":"SCALAR"
		},
		{
			"bufferView":97,
			"componentType":5126,
			"count":2,
			"type":"VEC3"
		},
		{
			"bufferView":98,
			"componentType":5126,
			"count":180,
			"max":[
				7.5
			],
			"min":[
				0.041666666666666664
			],
			"type":"SCALAR"
		},
		{
			"bufferView":99,
			"componentType":5126,
			"count":180,
			"type":"VEC4"
		},
		{
			"bufferView":100,
			"componentType":5126,
			"count":2,
			"type":"VEC3"
		}
	],
	"bufferViews":[
		{
			"buffer":0,
			"byteLength":442320,
			"byteOffset":0,
			"target":34962
		},
		{
			"buffer":0,
			"byteLength":442320,
			"byteOffset":442320,
			"target":34962
		},
		{
			"buffer":0,
			"byteLength":294880,
			"byteOffset":884640,
			"target":34962
		},
		{
			"buffer":0,
			"byteLength":214578,
			"byteOffset":1179520,
			"target":34963
		},
		{
			"buffer":0,
			"byteLength":1624092,
			"byteOffset":1394100,
			"target":34962
		},
		{
			"buffer":0,
			"byteLength":1624092,
			"byteOffset":3018192,
			"target":34962
		},
		{
			"buffer":0,
			"byteLength":1082728,
			"byteOffset":4642284,
			"target":34962
		},
		{
			"buffer":0,
			"byteLength":1278948,
			"byteOffset":5725012,
			"target":34963
		},
		{
			"buffer":0,
			"byteLength":277488,
			"byteOffset":7003960,
			"target":34962
		},
		{
			"buffer":0,
			"byteLength":277488,
			"byteOffset":7281448,
			"target":34962
		},
		{
			"buffer":0,
			"byteLength":184992,
			"byteOffset":7558936,
			"target":34962
		},
		{
			"buffer":0,
			"byteLength":101778,
			"byteOffset":7743928,
			"target":34963
		},
		{
			"buffer":0,
			"byteLength":126036,
			"byteOffset":7845708,
			"target":34962
		},
		{
			"buffer":0,
			"byteLength":126036,
			"byteOffset":7971744,
			"target":34962
		},
		{
			"buffer":0,
			"byteLength":84024,
			"byteOffset":8097780,
			"target":34962
		},
		{
			"buffer":0,
			"byteLength":48222,
			"byteOffset":8181804,
			"target":34963
		},
		{
			"buffer":0,
			"byteLength":991056,
			"byteOffset":8230028,
			"target":34962
		},
		{
			"buffer":0,
			"byteLength":991056,
			"byteOffset":9221084,
			"target":34962
		},
		{
			"buffer":0,
			"byteLength":660704,
			"byteOffset":10212140,
			"target":34962
		},
		{
			"buffer":0,
			"byteLength":785916,
			"byteOffset":10872844,
			"target":34963
		},
		{
			"buffer":0,
			"byteLength":2015460,
			"byteOffset":11658760,
			"target":34962
		},
		{
			"buffer":0,
			"byteLength":2015460,
			"byteOffset":13674220,
			"target":34962
		},
		{
			"buffer":0,
			"byteLength":1343640,
			"byteOffset":15689680,
			"target":34962
		},
		{
			"buffer":0,
			"byteLength":1672992,
			"byteOffset":17033320,
			"target":34963
		},
		{
			"buffer":0,
			"byteLength":260016,
			"byteOffset":18706312,
			"target":34962
		},
		{
			"buffer":0,
			"byteLength":260016,
			"byteOffset":18966328,
			"target":34962
		},
		{
			"buffer":0,
			"byteLength":173344,
			"byteOffset":19226344,
			"target":34962
		},
		{
			"buffer":0,
			"byteLength":64740,
			"byteOffset":19399688,
			"target":34963
		},
		{
			"buffer":0,
			"byteLength":110256,
			"byteOffset":19464428,
			"target":34962
		},
		{
			"buffer":0,
			"byteLength":110256,
			"byteOffset":19574684,
			"target":34962
		},
		{
			"buffer":0,
			"byteLength":73504,
			"byteOffset":19684940,
			"target":34962
		},
		{
			"buffer":0,
			"byteLength":36432,
			"byteOffset":19758444,
			"target":34963
		},
		{
			"buffer":0,
			"byteLength":149748,
			"byteOffset":19794876,
			"target":34962
		},
		{
			"buffer":0,
			"byteLength":149748,
			"byteOffset":19944624,
			"target":34962
		},
		{
			"buffer":0,
			"byteLength":99832,
			"byteOffset":20094372,
			"target":34962
		},
		{
			"buffer":0,
			"byteLength":53610,
			"byteOffset":20194204,
			"target":34963
		},
		{
			"buffer":0,
			"byteLength":161808,
			"byteOffset":20247816,
			"target":34962
		},
		{
			"buffer":0,
			"byteLength":161808,
			"byteOffset":20409624,
			"target":34962
		},
		{
			"buffer":0,
			"byteLength":107872,
			"byteOffset":20571432,
			"target":34962
		},
		{
			"buffer":0,
			"byteLength":97422,
			"byteOffset":20679304,
			"target":34963
		},
		{
			"buffer":0,
			"byteLength":376416,
			"byteOffset":20776728,
			"target":34962
		},
		{
			"buffer":0,
			"byteLength":376416,
			"byteOffset":21153144,
			"target":34962
		},
		{
			"buffer":0,
			"byteLength":250944,
			"byteOffset":21529560,
			"target":34962
		},
		{
			"buffer":0,
			"byteLength":214578,
			"byteOffset":21780504,
			"target":34963
		},
		{
			"buffer":0,
			"byteLength":1472256,
			"byteOffset":21995084,
			"target":34962
		},
		{
			"buffer":0,
			"byteLength":1472256,
			"byteOffset":23467340,
			"target":34962
		},
		{
			"buffer":0,
			"byteLength":981504,
			"byteOffset":24939596,
			"target":34962
		},
		{
			"buffer":0,
			"byteLength":1278948,
			"byteOffset":25921100,
			"target":34963
		},
		{
			"buffer":0,
			"byteLength":255864,
			"byteOffset":27200048,
			"target":34962
		},
		{
			"buffer":0,
			"byteLength":255864,
			"byteOffset":27455912,
			"target":34962
		},
		{
			"buffer":0,
			"byteLength":170576,
			"byteOffset":27711776,
			"target":34962
		},
		{
			"buffer":0,
			"byteLength":101778,
			"byteOffset":27882352,
			"target":34963
		},
		{
			"buffer":0,
			"byteLength":110580,
			"byteOffset":27984132,
			"target":34962
		},
		{
			"buffer":0,
			"byteLength":110580,
			"byteOffset":28094712,
			"target":34962
		},
		{
			"buffer":0,
			"byteLength":73720,
			"byteOffset":28205292,
			"target":34962
		},
		{
			"buffer":0,
			"byteLength":48222,
			"byteOffset":28279012,
			"target":34963
		},
		{
			"buffer":0,
			"byteLength":917028,
			"byteOffset":28327236,
			"target":34962
		},
		{
			"buffer":0,
			"byteLength":917028,
			"byteOffset":29244264,
			"target":34962
		},
		{
			"buffer":0,
			"byteLength":611352,
			"byteOffset":30161292,
			"target":34962
		},
		{
			"buffer":0,
			"byteLength":785916,
			"byteOffset":30772644,
			"target":34963
		},
		{
			"buffer":0,
			"byteLength":1860852,
			"byteOffset":31558560,
			"target":34962
		},
		{
			"buffer":0,
			"byteLength":1860852,
			"byteOffset":33419412,
			"target":34962
		},
		{
			"buffer":0,
			"byteLength":1240568,
			"byteOffset":35280264,
			"target":34962
		},
		{
			"buffer":0,
			"byteLength":1672992,
			"byteOffset":36520832,
			"target":34963
		},
		{
			"buffer":0,
			"byteLength":256272,
			"byteOffset":38193824,
			"target":34962
		},
		{
			"buffer":0,
			"byteLength":256272,
			"byteOffset":38450096,
			"target":34962
		},
		{
			"buffer":0,
			"byteLength":170848,
			"byteOffset":38706368,
			"target":34962
		},
		{
			"buffer":0,
			"byteLength":64740,
			"byteOffset":38877216,
			"target":34963
		},
		{
			"buffer":0,
			"byteLength":101280,
			"byteOffset":38941956,
			"target":34962
		},
		{
			"buffer":0,
			"byteLength":101280,
			"byteOffset":39043236,
			"target":34962
		},
		{
			"buffer":0,
			"byteLength":67520,
			"byteOffset":39144516,
			"target":34962
		},
		{
			"buffer":0,
			"byteLength":36432,
			"byteOffset":39212036,
			"target":34963
		},
		{
			"buffer":0,
			"byteLength":134160,
			"byteOffset":39248468,
			"target":34962
		},
		{
			"buffer":0,
			"byteLength":134160,
			"byteOffset":39382628,
			"target":34962
		},
		{
			"buffer":0,
			"byteLength":89440,
			"byteOffset":39516788,
			"target":34962
		},
		{
			"buffer":0,
			"byteLength":53610,
			"byteOffset":39606228,
			"target":34963
		},
		{
			"buffer":0,
			"byteLength":135420,
			"byteOffset":39659840,
			"target":34962
		},
		{
			"buffer":0,
			"byteLength":135420,
			"byteOffset":39795260,
			"target":34962
		},
		{
			"buffer":0,
			"byteLength":90280,
			"byteOffset":39930680,
			"target":34962
		},
		{
			"buffer":0,
			"byteLength":97422,
			"byteOffset":40020960,
			"target":34963
		},
		{
			"buffer":0,
			"byteLength":30720,
			"byteOffset":40118384,
			"target":34962
		},
		{
			"buffer":0,
			"byteLength":30720,
			"byteOffset":40149104,
			"target":34962
		},
		{
			"buffer":0,
			"byteLength":20480,
			"byteOffset":40179824,
			"target":34962
		},
		{
			"buffer":0,
			"byteLength":10176,
			"byteOffset":40200304,
			"target":34963
		},
		{
			"buffer":0,
			"byteLength":30864,
			"byteOffset":40210480,
			"target":34962
		},
		{
			"buffer":0,
			"byteLength":30864,
			"byteOffset":40241344,
			"target":34962
		},
		{
			"buffer":0,
			"byteLength":20576,
			"byteOffset":40272208,
			"target":34962
		},
		{
			"buffer":0,
			"byteLength":10176,
			"byteOffset":40292784,
			"target":34963
		},
		{
			"buffer":0,
			"byteLength":157344,
			"byteOffset":40302960,
			"target":34962
		},
		{
			"buffer":0,
			"byteLength":157344,
			"byteOffset":40460304,
			"target":34962
		},
		{
			"buffer":0,
			"byteLength":104896,
			"byteOffset":40617648,
			"target":34962
		},
		{
			"buffer":0,
			"byteLength":130776,
			"byteOffset":40722544,
			"target":34963
		},
		{
			"buffer":0,
			"byteLength":99072,
			"byteOffset":40853320,
			"target":34962
		},
		{
			"buffer":0,
			"byteLength":99072,
			"byteOffset":40952392,
			"target":34962
		},
		{
			"buffer":0,
			"byteLength":66048,
			"byteOffset":41051464,
			"target":34962
		},
		{
			"buffer":0,
			"byteLength":81864,
			"byteOffset":41117512,
			"target":34963
		},
		{
			"buffer":0,
			"byteLength":8,
			"byteOffset":41199376
		},
		{
			"buffer":0,
			"byteLength":24,
			"byteOffset":41199384
		},
		{
			"buffer":0,
			"byteLength":720,
			"byteOffset":41199408
		},
		{
			"buffer":0,
			"byteLength":2880,
			"byteOffset":41200128
		},
		{
			"buffer":0,
			"byteLength":24,
			"byteOffset":41203008
		}
	],
	"samplers":[
		{
			"magFilter":9729,
			"minFilter":9987,
			"wrapS":33648,
			"wrapT":33648
		}
	],
	"buffers":[
		{
			"byteLength":41203032,
			"uri":"PoetaCarpinteiro.bin"
		}
	]
}
