{
	"asset":{
		"generator":"Khronos glTF Blender I/O v4.5.49",
		"version":"2.0"
	},
	"extensionsUsed":[
		"KHR_materials_clearcoat",
		"KHR_materials_specular",
		"KHR_materials_ior"
	],
	"scene":0,
	"scenes":[
		{
			"name":"Scene",
			"nodes":[
				0,
				1,
				8
			]
		}
	],
	"nodes":[
		{
			"mesh":0,
			"name":"Cube.007",
			"rotation":[
				-0.8676900267601013,
				-0.16450677812099457,
				0.4546969532966614,
				0.11533630639314651
			],
			"scale":[
				-0.40123113989830017,
				-0.025532826781272888,
				-0.3383139967918396
			],
			"translation":[
				-0.6842489242553711,
				0.25111234188079834,
				0.1604630947113037
			]
		},
		{
			"mesh":1,
			"name":"Cube.001",
			"rotation":[
				0.1992671638727188,
				-0.29579323530197144,
				0.04928552731871605,
				0.9329361915588379
			],
			"scale":[
				-0.40123113989830017,
				-0.025532830506563187,
				-0.3383140563964844
			],
			"translation":[
				0.5186474919319153,
				-1.5670554637908936,
				5.4400811195373535
			]
		},
		{
			"name":"B\u00e9zierCurve",
			"scale":[
				0.6445710062980652,
				0.6445710062980652,
				0.6445710062980652
			],
			"translation":[
				0.14086225628852844,
				0.19620442390441895,
				-0.6400550603866577
			]
		},
		{
			"name":"B\u00e9zierCurve.001",
			"scale":[
				0.7019969820976257,
				0.7019969820976257,
				0.701996922492981
			],
			"translation":[
				0.1408616602420807,
				0.19620466232299805,
				0.1890048086643219
			]
		},
		{
			"mesh":2,
			"name":"Cube.019",
			"rotation":[
				0.38241782784461975,
				-0.010974607430398464,
				-0.9238507747650146,
				0.011657754890620708
			],
			"scale":[
				-0.3101579546928406,
				-0.31325042247772217,
				-0.25926992297172546
			],
			"translation":[
				2.6044728755950928,
				0.20889192819595337,
				-0.12343886494636536
			]
		},
		{
			"mesh":3,
			"name":"Cube.032",
			"rotation":[
				0.9236903190612793,
				0.006643534172326326,
				-0.38308069109916687,
				0.0011154673993587494
			],
			"scale":[
				-0.3074633479118347,
				-0.31349310278892517,
				-0.2590385377407074
			],
			"translation":[
				-2.369922399520874,
				0.20533764362335205,
				-0.12056060135364532
			]
		},
		{
			"mesh":4,
			"name":"Text",
			"scale":[
				0.6445710062980652,
				0.64457106590271,
				0.6445709466934204
			],
			"translation":[
				0.14086225628852844,
				0.19620442390441895,
				-0.6400550603866577
			]
		},
		{
			"mesh":5,
			"name":"Text.001",
			"scale":[
				1.0977270603179932,
				1.0977272987365723,
				1.0977270603179932
			],
			"translation":[
				0.14086243510246277,
				0.19620442390441895,
				0.3030351996421814
			]
		},
		{
			"children":[
				2,
				3,
				4,
				5,
				6,
				7
			],
			"name":"Empty",
			"rotation":[
				0,
				-0.0002898109960369766,
				0,
				1
			],
			"translation":[
				4.488565444946289,
				0,
				2.8953604698181152
			]
		}
	],
	"animations":[
		{
			"channels":[
				{
					"sampler":0,
					"target":{
						"node":8,
						"path":"translation"
					}
				},
				{
					"sampler":1,
					"target":{
						"node":8,
						"path":"rotation"
					}
				},
				{
					"sampler":2,
					"target":{
						"node":8,
						"path":"scale"
					}
				}
			],
			"name":"Action.002",
			"samplers":[
				{
					"input":72,
					"interpolation":"STEP",
					"output":73
				},
				{
					"input":74,
					"interpolation":"LINEAR",
					"output":75
				},
				{
					"input":72,
					"interpolation":"STEP",
					"output":76
				}
			]
		}
	],
	"materials":[
		{
			"doubleSided":true,
			"extensions":{
				"KHR_materials_specular":{
					"specularColorFactor":[
						1.600000023841858,
						1.600000023841858,
						1.600000023841858
					]
				}
			},
			"name":"Material.007",
			"pbrMetallicRoughness":{
				"baseColorFactor":[
					0.8025034666061401,
					0.7959398031234741,
					0.7462410926818848,
					1
				],
				"metallicFactor":0,
				"roughnessFactor":2
			}
		},
		{
			"doubleSided":true,
			"extensions":{
				"KHR_materials_clearcoat":{
					"clearcoatFactor":0.9154012799263,
					"clearcoatRoughnessFactor":0
				},
				"KHR_materials_specular":{
					"specularColorFactor":[
						1.600000023841858,
						1.600000023841858,
						1.600000023841858
					]
				},
				"KHR_materials_ior":{
					"ior":1.4500000476837158
				}
			},
			"name":"Material.001",
			"pbrMetallicRoughness":{
				"baseColorFactor":[
					0.0342031829059124,
					0,
					0.8014108538627625,
					1
				],
				"metallicFactor":0,
				"roughnessFactor":0.20000000298023224
			}
		},
		{
			"doubleSided":true,
			"extensions":{
				"KHR_materials_clearcoat":{
					"clearcoatFactor":0.800000011920929,
					"clearcoatRoughnessFactor":0.009999999776482582
				},
				"KHR_materials_specular":{
					"specularColorFactor":[
						1.600000023841858,
						1.600000023841858,
						1.600000023841858
					]
				}
			},
			"name":"Material.006",
			"pbrMetallicRoughness":{
				"baseColorFactor":[
					0.7990986704826355,
					0.04373503848910332,
					0.029556868597865105,
					1
				],
				"metallicFactor":0,
				"roughnessFactor":0.20000000298023224
			}
		},
		{
			"doubleSided":true,
			"extensions":{
				"KHR_materials_specular":{
					"specularColorFactor":[
						1.600000023841858,
						1.600000023841858,
						1.600000023841858
					]
				}
			},
			"name":"Material.003",
			"pbrMetallicRoughness":{
				"baseColorFactor":[
					0.8025034666061401,
					0.7959398031234741,
					0.7462410926818848,
					1
				],
				"metallicFactor":0,
				"roughnessFactor":2
			}
		},
		{
			"doubleSided":true,
			"extensions":{
				"KHR_materials_clearcoat":{
					"clearcoatFactor":0.04217899963259697,
					"clearcoatRoughnessFactor":0.24686747789382935
				}
			},
			"name":"Material.002",
			"pbrMetallicRoughness":{
				"baseColorFactor":[
					0.7990986704826355,
					0.04373503848910332,
					0.029556868597865105,
					1
				],
				"metallicFactor":0,
				"roughnessFactor":0.20000000298023224
			}
		},
		{
			"doubleSided":true,
			"extensions":{
				"KHR_materials_clearcoat":{
					"clearcoatRoughnessFactor":0
				},
				"KHR_materials_specular":{
					"specularColorFactor":[
						1.600000023841858,
						1.600000023841858,
						1.600000023841858
					]
				},
				"KHR_materials_ior":{
					"ior":1.4500000476837158
				}
			},
			"name":"Material.005",
			"pbrMetallicRoughness":{
				"baseColorFactor":[
					0.0342031829059124,
					0,
					0.8014108538627625,
					1
				],
				"metallicFactor":0,
				"roughnessFactor":0.20000000298023224
			}
		},
		{
			"doubleSided":true,
			"extensions":{
				"KHR_materials_clearcoat":{
					"clearcoatFactor":0.800000011920929,
					"clearcoatRoughnessFactor":0.009999999776482582
				},
				"KHR_materials_specular":{
					"specularColorFactor":[
						1.600000023841858,
						1.600000023841858,
						1.600000023841858
					]
				}
			},
			"name":"Material.004",
			"pbrMetallicRoughness":{
				"baseColorFactor":[
					0.7990986704826355,
					0.04373503848910332,
					0.029556868597865105,
					1
				],
				"metallicFactor":0,
				"roughnessFactor":0.20000000298023224
			}
		},
		{
			"doubleSided":true,
			"extensions":{
				"KHR_materials_specular":{
					"specularColorFactor":[
						1.600000023841858,
						1.600000023841858,
						1.600000023841858
					]
				}
			},
			"name":"Material.008",
			"pbrMetallicRoughness":{
				"baseColorFactor":[
					0.8025034666061401,
					0.7959398031234741,
					0.7462410926818848,
					1
				],
				"metallicFactor":0,
				"roughnessFactor":2
			}
		},
		{
			"doubleSided":true,
			"extensions":{
				"KHR_materials_clearcoat":{
					"clearcoatFactor":0.9154012799263,
					"clearcoatRoughnessFactor":0
				},
				"KHR_materials_specular":{
					"specularColorFactor":[
						1.600000023841858,
						1.600000023841858,
						1.600000023841858
					]
				},
				"KHR_materials_ior":{
					"ior":1.4500000476837158
				}
			},
			"name":"Material.009",
			"pbrMetallicRoughness":{
				"baseColorFactor":[
					0.0342031829059124,
					0,
					0.8014108538627625,
					1
				],
				"metallicFactor":0,
				"roughnessFactor":0.20000000298023224
			}
		},
		{
			"doubleSided":true,
			"extensions":{
				"KHR_materials_clearcoat":{
					"clearcoatFactor":0.800000011920929,
					"clearcoatRoughnessFactor":0.009999999776482582
				},
				"KHR_materials_specular":{
					"specularColorFactor":[
						1.600000023841858,
						1.600000023841858,
						1.600000023841858
					]
				}
			},
			"name":"Material.010",
			"pbrMetallicRoughness":{
				"baseColorFactor":[
					0.7990986704826355,
					0.04373503848910332,
					0.029556868597865105,
					1
				],
				"metallicFactor":0,
				"roughnessFactor":0.20000000298023224
			}
		},
		{
			"doubleSided":true,
			"extensions":{
				"KHR_materials_specular":{
					"specularColorFactor":[
						1.600000023841858,
						1.600000023841858,
						1.600000023841858
					]
				}
			},
			"name":"Material.011",
			"pbrMetallicRoughness":{
				"baseColorFactor":[
					0.8025034666061401,
					0.7959398031234741,
					0.7462410926818848,
					1
				],
				"metallicFactor":0,
				"roughnessFactor":2
			}
		},
		{
			"doubleSided":true,
			"extensions":{
				"KHR_materials_clearcoat":{
					"clearcoatFactor":0.04217899963259697,
					"clearcoatRoughnessFactor":0.24686747789382935
				}
			},
			"name":"Material.012",
			"pbrMetallicRoughness":{
				"baseColorFactor":[
					0.7990986704826355,
					0.04373503848910332,
					0.029556868597865105,
					1
				],
				"metallicFactor":0,
				"roughnessFactor":0.20000000298023224
			}
		},
		{
			"doubleSided":true,
			"extensions":{
				"KHR_materials_clearcoat":{
					"clearcoatRoughnessFactor":0
				},
				"KHR_materials_specular":{
					"specularColorFactor":[
						1.600000023841858,
						1.600000023841858,
						1.600000023841858
					]
				},
				"KHR_materials_ior":{
					"ior":1.4500000476837158
				}
			},
			"name":"Material.013",
			"pbrMetallicRoughness":{
				"baseColorFactor":[
					0.0342031829059124,
					0,
					0.8014108538627625,
					1
				],
				"metallicFactor":0,
				"roughnessFactor":0.20000000298023224
			}
		},
		{
			"doubleSided":true,
			"extensions":{
				"KHR_materials_clearcoat":{
					"clearcoatFactor":0.800000011920929,
					"clearcoatRoughnessFactor":0.009999999776482582
				},
				"KHR_materials_specular":{
					"specularColorFactor":[
						1.600000023841858,
						1.600000023841858,
						1.600000023841858
					]
				}
			},
			"name":"Material.014",
			"pbrMetallicRoughness":{
				"baseColorFactor":[
					0.7990986704826355,
					0.04373503848910332,
					0.029556868597865105,
					1
				],
				"metallicFactor":0,
				"roughnessFactor":0.20000000298023224
			}
		}
	],
	"meshes":[
		{
			"name":"Cube.011",
			"primitives":[
				{
					"attributes":{
						"POSITION":0,
						"NORMAL":1,
						"TEXCOORD_0":2
					},
					"indices":3,
					"material":0
				},
				{
					"attributes":{
						"POSITION":4,
						"NORMAL":5,
						"TEXCOORD_0":6
					},
					"indices":7,
					"material":1
				},
				{
					"attributes":{
						"POSITION":8,
						"NORMAL":9,
						"TEXCOORD_0":10
					},
					"indices":11,
					"material":2
				},
				{
					"attributes":{
						"POSITION":12,
						"NORMAL":13,
						"TEXCOORD_0":14
					},
					"indices":15,
					"material":3
				},
				{
					"attributes":{
						"POSITION":16,
						"NORMAL":17,
						"TEXCOORD_0":18
					},
					"indices":19,
					"material":4
				},
				{
					"attributes":{
						"POSITION":20,
						"NORMAL":21,
						"TEXCOORD_0":22
					},
					"indices":23
				},
				{
					"attributes":{
						"POSITION":24,
						"NORMAL":25,
						"TEXCOORD_0":26
					},
					"indices":27,
					"material":5
				},
				{
					"attributes":{
						"POSITION":28,
						"NORMAL":29,
						"TEXCOORD_0":30
					},
					"indices":31,
					"material":6
				}
			]
		},
		{
			"name":"Cube.001",
			"primitives":[
				{
					"attributes":{
						"POSITION":32,
						"NORMAL":33,
						"TEXCOORD_0":34
					},
					"indices":3,
					"material":7
				},
				{
					"attributes":{
						"POSITION":35,
						"NORMAL":36,
						"TEXCOORD_0":37
					},
					"indices":7,
					"material":8
				},
				{
					"attributes":{
						"POSITION":38,
						"NORMAL":39,
						"TEXCOORD_0":40
					},
					"indices":11,
					"material":9
				},
				{
					"attributes":{
						"POSITION":41,
						"NORMAL":42,
						"TEXCOORD_0":43
					},
					"indices":15,
					"material":10
				},
				{
					"attributes":{
						"POSITION":44,
						"NORMAL":45,
						"TEXCOORD_0":46
					},
					"indices":19,
					"material":11
				},
				{
					"attributes":{
						"POSITION":47,
						"NORMAL":48,
						"TEXCOORD_0":49
					},
					"indices":23
				},
				{
					"attributes":{
						"POSITION":50,
						"NORMAL":51,
						"TEXCOORD_0":52
					},
					"indices":27,
					"material":12
				},
				{
					"attributes":{
						"POSITION":53,
						"NORMAL":54,
						"TEXCOORD_0":55
					},
					"indices":31,
					"material":13
				}
			]
		},
		{
			"name":"Cube.036",
			"primitives":[
				{
					"attributes":{
						"POSITION":56,
						"NORMAL":57,
						"TEXCOORD_0":58
					},
					"indices":59,
					"material":6
				}
			]
		},
		{
			"name":"Cube.049",
			"primitives":[
				{
					"attributes":{
						"POSITION":60,
						"NORMAL":61,
						"TEXCOORD_0":62
					},
					"indices":63,
					"material":6
				}
			]
		},
		{
			"name":"Text",
			"primitives":[
				{
					"attributes":{
						"POSITION":64,
						"NORMAL":65,
						"TEXCOORD_0":66
					},
					"indices":67,
					"material":6
				}
			]
		},
		{
			"name":"Text.001",
			"primitives":[
				{
					"attributes":{
						"POSITION":68,
						"NORMAL":69,
						"TEXCOORD_0":70
					},
					"indices":71,
					"material":6
				}
			]
		}
	],
	"accessors":[
		{
			"bufferView":0,
			"componentType":5126,
			"count":27210,
			"max":[
				10.797881126403809,
				7.065375328063965,
				22.7265682220459
			],
			"min":[
				-8.330721855163574,
				-1.4652743339538574,
				-0.836283802986145
			],
			"type":"VEC3"
		},
		{
			"bufferView":1,
			"componentType":5126,
			"count":27210,
			"type":"VEC3"
		},
		{
			"bufferView":2,
			"componentType":5126,
			"count":27210,
			"type":"VEC2"
		},
		{
			"bufferView":3,
			"componentType":5123,
			"count":84372,
			"type":"SCALAR"
		},
		{
			"bufferView":4,
			"componentType":5126,
			"count":118710,
			"max":[
				10.974360466003418,
				6.912548065185547,
				22.93474578857422
			],
			"min":[
				-9.258417129516602,
				-2.352998733520508,
				-0.14523780345916748
			],
			"type":"VEC3"
		},
		{
			"bufferView":5,
			"componentType":5126,
			"count":118710,
			"type":"VEC3"
		},
		{
			"bufferView":6,
			"componentType":5126,
			"count":118710,
			"type":"VEC2"
		},
		{
			"bufferView":7,
			"componentType":5125,
			"count":354528,
			"type":"SCALAR"
		},
		{
			"bufferView":8,
			"componentType":5126,
			"count":27192,
			"max":[
				4.953149795532227,
				6.913926124572754,
				18.88421630859375
			],
			"min":[
				-6.612887859344482,
				-2.0867342948913574,
				-1.0551804304122925
			],
			"type":"VEC3"
		},
		{
			"bufferView":9,
			"componentType":5126,
			"count":27192,
			"type":"VEC3"
		},
		{
			"bufferView":10,
			"componentType":5126,
			"count":27192,
			"type":"VEC2"
		},
		{
			"bufferView":11,
			"componentType":5123,
			"count":59196,
			"type":"SCALAR"
		},
		{
			"bufferView":12,
			"componentType":5126,
			"count":12386,
			"max":[
				9.238338470458984,
				6.212779998779297,
				21.883769989013672
			],
			"min":[
				-9.069002151489258,
				-1.7708206176757812,
				-0.00918281078338623
			],
			"type":"VEC3"
		},
		{
			"bufferView":13,
			"componentType":5126,
			"count":12386,
			"type":"VEC3"
		},
		{
			"bufferView":14,
			"componentType":5126,
			"count":12386,
			"type":"VEC2"
		},
		{
			"bufferView":15,
			"componentType":5123,
			"count":34656,
			"type":"SCALAR"
		},
		{
			"bufferView":16,
			"componentType":5126,
			"count":71912,
			"max":[
				10.20513916015625,
				7.861178398132324,
				22.020612716674805
			],
			"min":[
				-8.489197731018066,
				-1.6734399795532227,
				0.4444137513637543
			],
			"type":"VEC3"
		},
		{
			"bufferView":17,
			"componentType":5126,
			"count":71912,
			"type":"VEC3"
		},
		{
			"bufferView":18,
			"componentType":5126,
			"count":71912,
			"type":"VEC2"
		},
		{
			"bufferView":19,
			"componentType":5125,
			"count":190536,
			"type":"SCALAR"
		},
		{
			"bufferView":20,
			"componentType":5126,
			"count":193586,
			"max":[
				10.974360466003418,
				7.861178398132324,
				22.93474578857422
			],
			"min":[
				-9.258417129516602,
				-2.0867342948913574,
				-1.0551804304122925
			],
			"type":"VEC3"
		},
		{
			"bufferView":21,
			"componentType":5126,
			"count":193586,
			"type":"VEC3"
		},
		{
			"bufferView":22,
			"componentType":5126,
			"count":193586,
			"type":"VEC2"
		},
		{
			"bufferView":23,
			"componentType":5125,
			"count":605544,
			"type":"SCALAR"
		},
		{
			"bufferView":24,
			"componentType":5126,
			"count":17774,
			"max":[
				-0.4522123336791992,
				3.1282052993774414,
				8.306297302246094
			],
			"min":[
				-7.492710113525391,
				-1.7801201343536377,
				-0.03997647762298584
			],
			"type":"VEC3"
		},
		{
			"bufferView":25,
			"componentType":5126,
			"count":17774,
			"type":"VEC3"
		},
		{
			"bufferView":26,
			"componentType":5126,
			"count":17774,
			"type":"VEC2"
		},
		{
			"bufferView":27,
			"componentType":5123,
			"count":47760,
			"type":"SCALAR"
		},
		{
			"bufferView":28,
			"componentType":5126,
			"count":9770,
			"max":[
				4.915614128112793,
				3.1369450092315674,
				6.378290176391602
			],
			"min":[
				4.688778877258301,
				-0.4640401601791382,
				6.109339714050293
			],
			"type":"VEC3"
		},
		{
			"bufferView":29,
			"componentType":5126,
			"count":9770,
			"type":"VEC3"
		},
		{
			"bufferView":30,
			"componentType":5126,
			"count":9770,
			"type":"VEC2"
		},
		{
			"bufferView":31,
			"componentType":5123,
			"count":11904,
			"type":"SCALAR"
		},
		{
			"bufferView":32,
			"componentType":5126,
			"count":27210,
			"max":[
				10.797881126403809,
				7.065375328063965,
				22.7265682220459
			],
			"min":[
				-8.330721855163574,
				-1.4652743339538574,
				-0.836283802986145
			],
			"type":"VEC3"
		},
		{
			"bufferView":33,
			"componentType":5126,
			"count":27210,
			"type":"VEC3"
		},
		{
			"bufferView":34,
			"componentType":5126,
			"count":27210,
			"type":"VEC2"
		},
		{
			"bufferView":35,
			"componentType":5126,
			"count":118710,
			"max":[
				10.974360466003418,
				6.912548065185547,
				22.93474578857422
			],
			"min":[
				-9.258417129516602,
				-2.352998733520508,
				-0.14523780345916748
			],
			"type":"VEC3"
		},
		{
			"bufferView":36,
			"componentType":5126,
			"count":118710,
			"type":"VEC3"
		},
		{
			"bufferView":37,
			"componentType":5126,
			"count":118710,
			"type":"VEC2"
		},
		{
			"bufferView":38,
			"componentType":5126,
			"count":27192,
			"max":[
				4.953149795532227,
				6.913926124572754,
				18.88421630859375
			],
			"min":[
				-6.612887859344482,
				-2.0867342948913574,
				-1.0551804304122925
			],
			"type":"VEC3"
		},
		{
			"bufferView":39,
			"componentType":5126,
			"count":27192,
			"type":"VEC3"
		},
		{
			"bufferView":40,
			"componentType":5126,
			"count":27192,
			"type":"VEC2"
		},
		{
			"bufferView":41,
			"componentType":5126,
			"count":12386,
			"max":[
				9.238338470458984,
				6.212779998779297,
				21.883769989013672
			],
			"min":[
				-9.069002151489258,
				-1.7708206176757812,
				-0.00918281078338623
			],
			"type":"VEC3"
		},
		{
			"bufferView":42,
			"componentType":5126,
			"count":12386,
			"type":"VEC3"
		},
		{
			"bufferView":43,
			"componentType":5126,
			"count":12386,
			"type":"VEC2"
		},
		{
			"bufferView":44,
			"componentType":5126,
			"count":71912,
			"max":[
				10.20513916015625,
				7.861178398132324,
				22.020612716674805
			],
			"min":[
				-8.489197731018066,
				-1.6734399795532227,
				0.4444137513637543
			],
			"type":"VEC3"
		},
		{
			"bufferView":45,
			"componentType":5126,
			"count":71912,
			"type":"VEC3"
		},
		{
			"bufferView":46,
			"componentType":5126,
			"count":71912,
			"type":"VEC2"
		},
		{
			"bufferView":47,
			"componentType":5126,
			"count":193586,
			"max":[
				10.974360466003418,
				7.861178398132324,
				22.93474578857422
			],
			"min":[
				-9.258417129516602,
				-2.0867342948913574,
				-1.0551804304122925
			],
			"type":"VEC3"
		},
		{
			"bufferView":48,
			"componentType":5126,
			"count":193586,
			"type":"VEC3"
		},
		{
			"bufferView":49,
			"componentType":5126,
			"count":193586,
			"type":"VEC2"
		},
		{
			"bufferView":50,
			"componentType":5126,
			"count":17774,
			"max":[
				-0.4522123336791992,
				3.1282052993774414,
				8.306297302246094
			],
			"min":[
				-7.492710113525391,
				-1.7801201343536377,
				-0.03997647762298584
			],
			"type":"VEC3"
		},
		{
			"bufferView":51,
			"componentType":5126,
			"count":17774,
			"type":"VEC3"
		},
		{
			"bufferView":52,
			"componentType":5126,
			"count":17774,
			"type":"VEC2"
		},
		{
			"bufferView":53,
			"componentType":5126,
			"count":9770,
			"max":[
				4.915614128112793,
				3.1369450092315674,
				6.378290176391602
			],
			"min":[
				4.688778877258301,
				-0.4640401601791382,
				6.109339714050293
			],
			"type":"VEC3"
		},
		{
			"bufferView":54,
			"componentType":5126,
			"count":9770,
			"type":"VEC3"
		},
		{
			"bufferView":55,
			"componentType":5126,
			"count":9770,
			"type":"VEC2"
		},
		{
			"bufferView":56,
			"componentType":5126,
			"count":2560,
			"max":[
				0.2422575205564499,
				0.395138144493103,
				0.8813110589981079
			],
			"min":[
				-1.2056201696395874,
				-0.19602376222610474,
				-0.8971590995788574
			],
			"type":"VEC3"
		},
		{
			"bufferView":57,
			"componentType":5126,
			"count":2560,
			"type":"VEC3"
		},
		{
			"bufferView":58,
			"componentType":5126,
			"count":2560,
			"type":"VEC2"
		},
		{
			"bufferView":59,
			"componentType":5123,
			"count":5088,
			"type":"SCALAR"
		},
		{
			"bufferView":60,
			"componentType":5126,
			"count":2572,
			"max":[
				0.2422575205564499,
				0.38395461440086365,
				0.8722285032272339
			],
			"min":[
				-1.2580081224441528,
				-0.19284282624721527,
				-0.8607221841812134
			],
			"type":"VEC3"
		},
		{
			"bufferView":61,
			"componentType":5126,
			"count":2572,
			"type":"VEC3"
		},
		{
			"bufferView":62,
			"componentType":5126,
			"count":2572,
			"type":"VEC2"
		},
		{
			"bufferView":63,
			"componentType":5123,
			"count":5088,
			"type":"SCALAR"
		},
		{
			"bufferView":64,
			"componentType":5126,
			"count":13112,
			"max":[
				3.9560043811798096,
				0.11999998986721039,
				0.0770486444234848
			],
			"min":[
				-3.972987651824951,
				-0.11999998986721039,
				-3.5279552936553955
			],
			"type":"VEC3"
		},
		{
			"bufferView":65,
			"componentType":5126,
			"count":13112,
			"type":"VEC3"
		},
		{
			"bufferView":66,
			"componentType":5126,
			"count":13112,
			"type":"VEC2"
		},
		{
			"bufferView":67,
			"componentType":5123,
			"count":65388,
			"type":"SCALAR"
		},
		{
			"bufferView":68,
			"componentType":5126,
			"count":8256,
			"max":[
				2.247403383255005,
				0.06000000238418579,
				1.815730094909668
			],
			"min":[
				-2.2399983406066895,
				-0.06000000238418579,
				-0.08624818921089172
			],
			"type":"VEC3"
		},
		{
			"bufferView":69,
			"componentType":5126,
			"count":8256,
			"type":"VEC3"
		},
		{
			"bufferView":70,
			"componentType":5126,
			"count":8256,
			"type":"VEC2"
		},
		{
			"bufferView":71,
			"componentType":5123,
			"count":40932,
			"type":"SCALAR"
		},
		{
			"bufferView":72,
			"componentType":5126,
			"count":2,
			"max":[
				7.5
			],
			"min":[
				0.041666666666666664
			],
			"type":"SCALAR"
		},
		{
			"bufferView":73,
			"componentType":5126,
			"count":2,
			"type":"VEC3"
		},
		{
			"bufferView":74,
			"componentType":5126,
			"count":180,
			"max":[
				7.5
			],
			"min":[
				0.041666666666666664
			],
			"type":"SCALAR"
		},
		{
			"bufferView":75,
			"componentType":5126,
			"count":180,
			"type":"VEC4"
		},
		{
			"bufferView":76,
			"componentType":5126,
			"count":2,
			"type":"VEC3"
		}
	],
	"bufferViews":[
		{
			"buffer":0,
			"byteLength":326520,
			"byteOffset":0,
			"target":34962
		},
		{
			"buffer":0,
			"byteLength":326520,
			"byteOffset":326520,
			"target":34962
		},
		{
			"buffer":0,
			"byteLength":217680,
			"byteOffset":653040,
			"target":34962
		},
		{
			"buffer":0,
			"byteLength":168744,
			"byteOffset":870720,
			"target":34963
		},
		{
			"buffer":0,
			"byteLength":1424520,
			"byteOffset":1039464,
			"target":34962
		},
		{
			"buffer":0,
			"byteLength":1424520,
			"byteOffset":2463984,
			"target":34962
		},
		{
			"buffer":0,
			"byteLength":949680,
			"byteOffset":3888504,
			"target":34962
		},
		{
			"buffer":0,
			"byteLength":1418112,
			"byteOffset":4838184,
			"target":34963
		},
		{
			"buffer":0,
			"byteLength":326304,
			"byteOffset":6256296,
			"target":34962
		},
		{
			"buffer":0,
			"byteLength":326304,
			"byteOffset":6582600,
			"target":34962
		},
		{
			"buffer":0,
			"byteLength":217536,
			"byteOffset":6908904,
			"target":34962
		},
		{
			"buffer":0,
			"byteLength":118392,
			"byteOffset":7126440,
			"target":34963
		},
		{
			"buffer":0,
			"byteLength":148632,
			"byteOffset":7244832,
			"target":34962
		},
		{
			"buffer":0,
			"byteLength":148632,
			"byteOffset":7393464,
			"target":34962
		},
		{
			"buffer":0,
			"byteLength":99088,
			"byteOffset":7542096,
			"target":34962
		},
		{
			"buffer":0,
			"byteLength":69312,
			"byteOffset":7641184,
			"target":34963
		},
		{
			"buffer":0,
			"byteLength":862944,
			"byteOffset":7710496,
			"target":34962
		},
		{
			"buffer":0,
			"byteLength":862944,
			"byteOffset":8573440,
			"target":34962
		},
		{
			"buffer":0,
			"byteLength":575296,
			"byteOffset":9436384,
			"target":34962
		},
		{
			"buffer":0,
			"byteLength":762144,
			"byteOffset":10011680,
			"target":34963
		},
		{
			"buffer":0,
			"byteLength":2323032,
			"byteOffset":10773824,
			"target":34962
		},
		{
			"buffer":0,
			"byteLength":2323032,
			"byteOffset":13096856,
			"target":34962
		},
		{
			"buffer":0,
			"byteLength":1548688,
			"byteOffset":15419888,
			"target":34962
		},
		{
			"buffer":0,
			"byteLength":2422176,
			"byteOffset":16968576,
			"target":34963
		},
		{
			"buffer":0,
			"byteLength":213288,
			"byteOffset":19390752,
			"target":34962
		},
		{
			"buffer":0,
			"byteLength":213288,
			"byteOffset":19604040,
			"target":34962
		},
		{
			"buffer":0,
			"byteLength":142192,
			"byteOffset":19817328,
			"target":34962
		},
		{
			"buffer":0,
			"byteLength":95520,
			"byteOffset":19959520,
			"target":34963
		},
		{
			"buffer":0,
			"byteLength":117240,
			"byteOffset":20055040,
			"target":34962
		},
		{
			"buffer":0,
			"byteLength":117240,
			"byteOffset":20172280,
			"target":34962
		},
		{
			"buffer":0,
			"byteLength":78160,
			"byteOffset":20289520,
			"target":34962
		},
		{
			"buffer":0,
			"byteLength":23808,
			"byteOffset":20367680,
			"target":34963
		},
		{
			"buffer":0,
			"byteLength":326520,
			"byteOffset":20391488,
			"target":34962
		},
		{
			"buffer":0,
			"byteLength":326520,
			"byteOffset":20718008,
			"target":34962
		},
		{
			"buffer":0,
			"byteLength":217680,
			"byteOffset":21044528,
			"target":34962
		},
		{
			"buffer":0,
			"byteLength":1424520,
			"byteOffset":21262208,
			"target":34962
		},
		{
			"buffer":0,
			"byteLength":1424520,
			"byteOffset":22686728,
			"target":34962
		},
		{
			"buffer":0,
			"byteLength":949680,
			"byteOffset":24111248,
			"target":34962
		},
		{
			"buffer":0,
			"byteLength":326304,
			"byteOffset":25060928,
			"target":34962
		},
		{
			"buffer":0,
			"byteLength":326304,
			"byteOffset":25387232,
			"target":34962
		},
		{
			"buffer":0,
			"byteLength":217536,
			"byteOffset":25713536,
			"target":34962
		},
		{
			"buffer":0,
			"byteLength":148632,
			"byteOffset":25931072,
			"target":34962
		},
		{
			"buffer":0,
			"byteLength":148632,
			"byteOffset":26079704,
			"target":34962
		},
		{
			"buffer":0,
			"byteLength":99088,
			"byteOffset":26228336,
			"target":34962
		},
		{
			"buffer":0,
			"byteLength":862944,
			"byteOffset":26327424,
			"target":34962
		},
		{
			"buffer":0,
			"byteLength":862944,
			"byteOffset":27190368,
			"target":34962
		},
		{
			"buffer":0,
			"byteLength":575296,
			"byteOffset":28053312,
			"target":34962
		},
		{
			"buffer":0,
			"byteLength":2323032,
			"byteOffset":28628608,
			"target":34962
		},
		{
			"buffer":0,
			"byteLength":2323032,
			"byteOffset":30951640,
			"target":34962
		},
		{
			"buffer":0,
			"byteLength":1548688,
			"byteOffset":33274672,
			"target":34962
		},
		{
			"buffer":0,
			"byteLength":213288,
			"byteOffset":34823360,
			"target":34962
		},
		{
			"buffer":0,
			"byteLength":213288,
			"byteOffset":35036648,
			"target":34962
		},
		{
			"buffer":0,
			"byteLength":142192,
			"byteOffset":35249936,
			"target":34962
		},
		{
			"buffer":0,
			"byteLength":117240,
			"byteOffset":35392128,
			"target":34962
		},
		{
			"buffer":0,
			"byteLength":117240,
			"byteOffset":35509368,
			"target":34962
		},
		{
			"buffer":0,
			"byteLength":78160,
			"byteOffset":35626608,
			"target":34962
		},
		{
			"buffer":0,
			"byteLength":30720,
			"byteOffset":35704768,
			"target":34962
		},
		{
			"buffer":0,
			"byteLength":30720,
			"byteOffset":35735488,
			"target":34962
		},
		{
			"buffer":0,
			"byteLength":20480,
			"byteOffset":35766208,
			"target":34962
		},
		{
			"buffer":0,
			"byteLength":10176,
			"byteOffset":35786688,
			"target":34963
		},
		{
			"buffer":0,
			"byteLength":30864,
			"byteOffset":35796864,
			"target":34962
		},
		{
			"buffer":0,
			"byteLength":30864,
			"byteOffset":35827728,
			"target":34962
		},
		{
			"buffer":0,
			"byteLength":20576,
			"byteOffset":35858592,
			"target":34962
		},
		{
			"buffer":0,
			"byteLength":10176,
			"byteOffset":35879168,
			"target":34963
		},
		{
			"buffer":0,
			"byteLength":157344,
			"byteOffset":35889344,
			"target":34962
		},
		{
			"buffer":0,
			"byteLength":157344,
			"byteOffset":36046688,
			"target":34962
		},
		{
			"buffer":0,
			"byteLength":104896,
			"byteOffset":36204032,
			"target":34962
		},
		{
			"buffer":0,
			"byteLength":130776,
			"byteOffset":36308928,
			"target":34963
		},
		{
			"buffer":0,
			"byteLength":99072,
			"byteOffset":36439704,
			"target":34962
		},
		{
			"buffer":0,
			"byteLength":99072,
			"byteOffset":36538776,
			"target":34962
		},
		{
			"buffer":0,
			"byteLength":66048,
			"byteOffset":36637848,
			"target":34962
		},
		{
			"buffer":0,
			"byteLength":81864,
			"byteOffset":36703896,
			"target":34963
		},
		{
			"buffer":0,
			"byteLength":8,
			"byteOffset":36785760
		},
		{
			"buffer":0,
			"byteLength":24,
			"byteOffset":36785768
		},
		{
			"buffer":0,
			"byteLength":720,
			"byteOffset":36785792
		},
		{
			"buffer":0,
			"byteLength":2880,
			"byteOffset":36786512
		},
		{
			"buffer":0,
			"byteLength":24,
			"byteOffset":36789392
		}
	],
	"buffers":[
		{
			"byteLength":36789416,
			"uri":"PoetaCarpinteiro.bin"
		}
	]
}
